<?xml version="1.0" encoding="UTF-8"?>
<svg id="Calque_1" data-name="Calque 1" xmlns="http://www.w3.org/2000/svg" viewBox="0 0 402.07 402.56">
  <path d="M187.16,2.43c173.52-11.01,279.11,192.21,165.99,327.35C250.46,452.46,52.73,407.91,9.41,255.82-24.69,136.1,63.03,10.3,187.16,2.43Z" style="fill: #e4d296; stroke: #d4af37; stroke-miterlimit: 10; stroke-width: 4px;"/>
  <path d="M209.02,23.44l42.44,7.14.42,150.02,79.42-.42.42-100.43c62.92,67.59,63.3,173.96.84,242.05l-1.26-98.75h-79.84v149.6c-5.05,2.77-41.47,9.05-42.86,5.88l.42-355.08Z" style="fill: #104278; stroke: #d4af37; stroke-miterlimit: 10; stroke-width: 4px;"/>
  <path d="M185.48,23.44c1.42-.06,7.46-.31,7.98.42l-.42,355.93c-85.38-3.91-160.8-72.61-168.93-158h43.7c8.73,44.73,39.54,86.22,82.78,102.11V66.72l-63.87-.84c24.94-22.13,65.09-41.03,98.75-42.44Z" style="fill: #104278; stroke: #d4af37; stroke-miterlimit: 10; stroke-width: 4px;"/>
</svg>